/* XPM */
static char * top_right_inactive_xpm[] = {
"5 5 2 1",
" 	c None",
".	c #FFFFFF s inactive_mid_1",
".... ",
"    .",
"    .",
"    .",
"    ."};
