/* XPM */
static char * bottom_right_inactive_xpm[] = {
"16 16 2 1",
" 	c None",
".	c #FFFFFF s inactive_mid_1",
"               .",
"               .",
"               .",
"               .",
"               .",
"               .",
"               .",
"               .",
"               .",
"               .",
"               .",
"               .",
"               .",
"               .",
"               .",
"............... "};
