/* XPM */
static char * close_inactive_xpm[] = {
"15 30 9 1",
" 	g None",
".	g #EFEFEF",
"+	g #C7C7C7",
"@	g #A5A5A5",
"#	g #909090",
"$	g #898989",
"%	g #DCDCDC",
"&	g #9E9E9E",
"*	g #888888",
"...............",
"...............",
"...............",
"...............",
"...............",
"...............",
"...............",
"...............",
"...............",
"....+@#$#@+....",
"..%&*******&%..",
".%#*********#%.",
".&***********&.",
"+*************+",
"@*************@",
"#*************#",
"$*************$",
"#*************#",
"@*************@",
"+*************+",
".&***********&.",
".%#*********#%.",
"..%&*******&%..",
"....+@#$#@+....",
"...............",
"...............",
"...............",
"...............",
"...............",
"..............."};
