/* XPM */
static char * hide_prelight_xpm[] = {
"15 30 18 1",
" 	c None",
".	c #ECF0F1",
"+	c #87B8D8",
"@	c #559AC7",
"#	c #3788BD",
"$	c #2B81B9",
"%	c #B2D0E4",
"&	c #4C95C3",
"*	c #2980B9",
"=	c #3888BD",
"-	c #4791C1",
";	c #A0C4DB",
">	c #D5E3EA",
",	c #E9EEF0",
"'	c #6AA5CB",
")	c #E7EDEF",
"!	c #AACADE",
"~	c #3A8ABE",
"...............",
"...............",
"...............",
"...............",
"...............",
"...............",
"...............",
"...............",
"...............",
"....+@#$#@+....",
"..%&*******&%..",
".%=*-;>,>;-*=%.",
".&*').....)'*&.",
"+*-).......)-*+",
"@*;.........;*@",
"#*>...!~!...>*#",
"$*,...~*~...,*$",
"#*>...!~!...>*#",
"@*;.........;*@",
"+*-).......)-*+",
".&*').....)'*&.",
".%=*-;>,>;-*=%.",
"..%&*******&%..",
"....+@#$#@+....",
"...............",
"...............",
"...............",
"...............",
"...............",
"..............."};
