/* XPM */
static char * maximize_active_xpm[] = {
"15 30 15 1",
" 	c None",
".	c #ECF0F1",
"+	c #A6CEE8",
"@	c #68B1E1",
"#	c #439FDC",
"$	c #3699DB",
"%	c #CAE0ED",
"&	c #5CABDF",
"*	c #3498DB",
"=	c #50A5DE",
"-	c #A4CDE8",
";	c #D7E5EE",
">	c #E9EEF0",
",	c #72B5E2",
"'	c #E7EDF0",
"...............",
"...............",
"...............",
"...............",
"...............",
"...............",
"...............",
"...............",
"...............",
"....+@#$#@+....",
"..%&*******&%..",
".%#*=-;>;-=*#%.",
".&*,'.....',*&.",
"+*='.......'=*+",
"@*-.........-*@",
"#*;.........;*#",
"$*>.........>*$",
"#*;.........;*#",
"@*-.........-*@",
"+*='.......'=*+",
".&*,'.....',*&.",
".%#*=-;>;-=*#%.",
"..%&*******&%..",
"....+@#$#@+....",
"...............",
"...............",
"...............",
"...............",
"...............",
"..............."};
