/* XPM */
static char * stick_pressed_xpm[] = {
"5 3 3 1",
" 	c None",
".	c #000000 s active_shadow_1",
"+	c #FFFFFF s active_mid_1",
".....",
".+++.",
"....."};
